<svg id="Layer_1" height="512" viewBox="0 0 512 512" width="512" xmlns="http://www.w3.org/2000/svg"><g><g><path d="m400.578 187.409v169.888c0 26.001-21.078 47.078-47.078 47.078h-202.371c-21.929 0-39.707-17.777-39.707-39.707v-177.259z" fill="#fff"/><path d="m353.5 408.375h-202.372c-24.1 0-43.707-19.606-43.707-43.707v-177.259c0-2.209 1.791-4 4-4h289.156c2.209 0 4 1.791 4 4v169.888c.001 28.165-22.912 51.078-51.077 51.078zm-238.078-216.966v173.259c0 19.688 16.018 35.707 35.707 35.707h202.371c23.753 0 43.078-19.325 43.078-43.078v-165.888z" fill="#4d4d4d"/></g><g><path d="m400.578 302.561c0 28.075-26.661 28.075-26.661 28.075-26.001 0-47.078 21.078-47.078 47.078 0 0 0 26.661-29.422 26.661 56.083 0 103.161-47.078 103.161-101.814z" fill="#e2d5ce"/><path d="m297.417 408.375c-2.209 0-4-1.791-4-4s1.791-4 4-4c25.133 0 25.422-21.735 25.422-22.66 0-28.165 22.914-51.079 51.078-51.079.045 0 5.983-.079 11.701-3.174 7.272-3.936 10.96-10.968 10.96-20.901 0-2.209 1.791-4 4-4s4 1.791 4 4v.02c-.012 57.347-49.081 105.794-107.161 105.794zm95.515-80.042c-6.282 4.678-13.794 6.303-19.015 6.303-23.753 0-43.078 19.325-43.078 43.079 0 .176-.127 10.279-6.508 18.84 32.834-9.491 59.251-35.734 68.601-68.222z" fill="#4d4d4d"/></g><path d="m400.578 231.571h-37.495c-2.209 0-4-1.791-4-4s1.791-4 4-4h37.495c2.209 0 4 1.791 4 4s-1.791 4-4 4z" fill="#4d4d4d"/><g><path d="m360.871 115.219h-209.742c-21.929 0-39.707 17.777-39.707 39.707v32.483h289.156v-32.484c0-21.929-17.777-39.706-39.707-39.706z" fill="#fbd67f"/><path d="m400.578 191.409h-289.156c-2.209 0-4-1.791-4-4v-32.483c0-24.101 19.606-43.707 43.707-43.707h209.743c24.1 0 43.707 19.606 43.707 43.707v32.483c-.001 2.209-1.792 4-4.001 4zm-285.156-8h281.156v-28.483c0-19.688-16.018-35.707-35.707-35.707h-209.743c-19.688 0-35.707 16.019-35.707 35.707v28.483z" fill="#4d4d4d"/></g><g><g><path d="m172.42 140.587c-6.676 0-12.087-5.412-12.087-12.087v-30.302c0-6.676 5.412-12.087 12.087-12.087 6.676 0 12.087 5.412 12.087 12.087v30.302c.001 6.676-5.411 12.087-12.087 12.087z" fill="#fff"/><path d="m172.42 144.588c-8.87 0-16.087-7.217-16.087-16.088v-30.302c0-8.87 7.217-16.087 16.087-16.087s16.087 7.217 16.087 16.087v30.302c0 8.871-7.216 16.088-16.087 16.088zm0-54.477c-4.459 0-8.087 3.628-8.087 8.087v30.302c0 4.46 3.628 8.088 8.087 8.088s8.087-3.628 8.087-8.088v-30.302c0-4.459-3.628-8.087-8.087-8.087z" fill="#4d4d4d"/></g><g><path d="m339.58 140.587c-6.676 0-12.087-5.412-12.087-12.087v-30.302c0-6.676 5.412-12.087 12.087-12.087 6.676 0 12.087 5.412 12.087 12.087v30.302c0 6.676-5.412 12.087-12.087 12.087z" fill="#fff"/><path d="m339.58 144.588c-8.87 0-16.087-7.217-16.087-16.088v-30.302c0-8.87 7.217-16.087 16.087-16.087s16.087 7.217 16.087 16.087v30.302c0 8.871-7.217 16.088-16.087 16.088zm0-54.477c-4.459 0-8.087 3.628-8.087 8.087v30.302c0 4.46 3.628 8.088 8.087 8.088s8.087-3.628 8.087-8.088v-30.302c0-4.459-3.628-8.087-8.087-8.087z" fill="#4d4d4d"/></g></g><path d="m312.216 174.1h-114.88c-2.209 0-4-1.791-4-4s1.791-4 4-4h114.879c2.209 0 4 1.791 4 4s-1.79 4-3.999 4z" fill="#4d4d4d"/><path d="m239.818 132.129h-31.805c-1.381 0-2.5-1.119-2.5-2.5s1.119-2.5 2.5-2.5h31.805c1.381 0 2.5 1.119 2.5 2.5s-1.119 2.5-2.5 2.5z" fill="#fff"/><path d="m261.208 132.129h-5.796c-1.381 0-2.5-1.119-2.5-2.5s1.119-2.5 2.5-2.5h5.796c1.381 0 2.5 1.119 2.5 2.5s-1.119 2.5-2.5 2.5z" fill="#fff"/><g fill="#4d4d4d"><path d="m168.738 120.126c-1.381 0-2.5-1.119-2.5-2.5v-13.911c0-1.381 1.119-2.5 2.5-2.5s2.5 1.119 2.5 2.5v13.911c0 1.381-1.119 2.5-2.5 2.5z"/><path d="m336.29 120.126c-1.381 0-2.5-1.119-2.5-2.5v-4.813c0-1.381 1.119-2.5 2.5-2.5s2.5 1.119 2.5 2.5v4.813c0 1.381-1.119 2.5-2.5 2.5z"/><path d="m131.791 90.111h-20.369c-2.209 0-4-1.791-4-4s1.791-4 4-4h20.369c2.209 0 4 1.791 4 4s-1.791 4-4 4z"/><path d="m400.578 429.853h-20.369c-2.209 0-4-1.791-4-4s1.791-4 4-4h20.369c2.209 0 4 1.791 4 4s-1.791 4-4 4z"/><path d="m366.89 429.889c-.006 0-.012 0-.018 0l-3.181-.014c-2.209-.01-3.992-1.808-3.983-4.018.009-2.209 1.818-4.025 4.017-3.982l3.181.014c2.209.01 3.992 1.808 3.983 4.018-.009 2.202-1.798 3.982-3.999 3.982z"/></g><g><g><circle cx="265.783" cy="298.453" fill="#fbd67f" r="52.162"/><path d="m265.783 354.615c-30.968 0-56.163-25.194-56.163-56.162s25.194-56.162 56.163-56.162c30.968 0 56.162 25.194 56.162 56.162s-25.194 56.162-56.162 56.162zm0-104.324c-26.557 0-48.163 21.605-48.163 48.162s21.605 48.162 48.163 48.162c26.557 0 48.162-21.605 48.162-48.162s-21.605-48.162-48.162-48.162z" fill="#4d4d4d"/></g><g><path d="m261.347 311.457c-.791 0-1.573.04-2.348.102-4.946-12.571-17.185-21.473-31.511-21.473-18.7 0-33.859 15.159-33.859 33.859 0 .207.012.41.016.616-.466-.028-.934-.047-1.407-.047-12.591 0-22.798 10.207-22.798 22.798s10.207 22.797 22.798 22.797h69.11c16.196 0 29.326-13.13 29.326-29.326s-13.131-29.326-29.327-29.326z" fill="#fff"/><path d="m261.347 374.108h-69.11c-14.776 0-26.798-12.021-26.798-26.798 0-13.945 10.708-25.437 24.333-26.685 1.688-19.326 17.958-34.54 37.715-34.54 14.7 0 27.784 8.299 34.082 21.372 18.274.119 33.103 15.023 33.103 33.325.001 18.377-14.949 33.326-33.325 33.326zm-69.11-45.594c-10.365 0-18.798 8.433-18.798 18.797 0 10.365 8.433 18.798 18.798 18.798h69.11c13.965 0 25.326-11.36 25.326-25.325s-11.361-25.326-25.326-25.326c-.612 0-1.276.029-2.031.089-1.762.139-3.394-.886-4.039-2.522-4.526-11.504-15.434-18.938-27.789-18.938-16.464 0-29.859 13.395-29.859 29.859l.015.549c.019 1.114-.429 2.186-1.234 2.956s-1.894 1.187-3.008 1.103c-.386-.025-.773-.04-1.165-.04z" fill="#4d4d4d"/></g><g fill="#4d4d4d"><path d="m265.783 237.428c-2.209 0-4-1.791-4-4v-11.752c0-2.209 1.791-4 4-4s4 1.791 4 4v11.752c0 2.209-1.791 4-4 4z"/><path d="m233.274 246.141c-1.383 0-2.727-.718-3.468-2.001l-5.876-10.178c-1.104-1.913-.449-4.359 1.464-5.464 1.914-1.106 4.36-.448 5.464 1.464l5.876 10.178c1.104 1.913.449 4.359-1.464 5.464-.63.364-1.318.537-1.996.537z"/><path d="m209.465 269.941c-.679 0-1.366-.173-1.996-.537l-10.177-5.876c-1.913-1.104-2.569-3.551-1.464-5.464 1.104-1.913 3.55-2.57 5.464-1.464l10.177 5.876c1.913 1.104 2.569 3.551 1.464 5.464-.741 1.284-2.085 2.001-3.468 2.001z"/><path d="m200.757 302.453h-11.752c-2.209 0-4-1.791-4-4s1.791-4 4-4h11.752c2.209 0 4 1.791 4 4s-1.791 4-4 4z"/><path d="m304.176 368.945c-1.383 0-2.727-.718-3.468-2.001l-5.876-10.177c-1.105-1.913-.449-4.359 1.464-5.464 1.915-1.107 4.36-.449 5.464 1.464l5.876 10.177c1.105 1.913.449 4.359-1.464 5.464-.63.364-1.318.537-1.996.537z"/><path d="m332.27 340.843c-.679 0-1.366-.173-1.996-.537l-10.177-5.876c-1.913-1.104-2.569-3.551-1.464-5.464 1.104-1.914 3.55-2.57 5.464-1.464l10.177 5.876c1.913 1.104 2.569 3.551 1.464 5.464-.741 1.283-2.086 2.001-3.468 2.001z"/><path d="m342.561 302.453h-11.752c-2.209 0-4-1.791-4-4s1.791-4 4-4h11.752c2.209 0 4 1.791 4 4s-1.791 4-4 4z"/><path d="m322.101 269.941c-1.383 0-2.727-.718-3.468-2.001-1.105-1.913-.449-4.359 1.464-5.464l10.177-5.876c1.914-1.106 4.36-.449 5.464 1.464 1.105 1.913.449 4.359-1.464 5.464l-10.177 5.876c-.63.365-1.318.537-1.996.537z"/><path d="m298.292 246.141c-.679 0-1.366-.173-1.996-.537-1.913-1.104-2.569-3.551-1.464-5.464l5.876-10.178c1.105-1.914 3.551-2.57 5.464-1.464 1.913 1.104 2.569 3.551 1.464 5.464l-5.876 10.178c-.741 1.283-2.086 2.001-3.468 2.001z"/></g><path d="m233.273 280.068c-.135 0-.271-.011-.409-.033-1.363-.225-2.285-1.511-2.061-2.873 1.772-10.768 15.086-19.35 21.726-20.93 1.349-.324 2.691.51 3.011 1.853.32 1.344-.51 2.691-1.853 3.011-5.422 1.291-16.632 8.869-17.951 16.879-.201 1.224-1.261 2.093-2.463 2.093z" fill="#fff"/></g></g></svg>