<?xml version="1.0" encoding="iso-8859-1"?>
<!-- Generator: Adobe Illustrator 19.0.0, SVG Export Plug-In . SVG Version: 6.00 Build 0)  -->
<svg version="1.1" id="Capa_1" xmlns="http://www.w3.org/2000/svg" xmlns:xlink="http://www.w3.org/1999/xlink" x="0px" y="0px"
	 viewBox="0 0 425.648 425.648" style="enable-background:new 0 0 425.648 425.648;" xml:space="preserve">
<path style="fill:#FFDB00;" d="M374.664,253.328c-8.08,16.4-18.56,31.28-31.12,44.32c-32,33.2-76.96,53.84-126.72,53.84
	c-97.2,0-176-78.8-176-176c0-69.28,40-129.2,98.16-157.84c-11.68,23.44-18.16,49.84-18.16,77.84c0,33.2,9.2,64.32,25.2,90.88
	c30.88,51.04,86.88,85.12,150.8,85.12C324.824,271.488,351.224,265.008,374.664,253.328z"/>
<path style="fill:#DFDFE1;" d="M416.824,241.648c0,30.96-25.04,56-56,56h-17.28c12.56-13.04,23.04-27.92,31.12-44.32
	c-23.44,11.68-49.84,18.16-77.84,18.16c-63.92,0-119.92-34.08-150.8-85.12c7.36-45.84,46.96-80.72,94.8-80.72
	c34,0,63.84,17.68,80.96,44.32c7.76,12.16,12.88,26.24,14.48,41.36c7.36-3.68,15.68-5.68,24.56-5.68
	C391.784,185.648,416.824,210.688,416.824,241.648z"/>
<g>
	<path style="fill:#4D4D4D;" d="M360.824,177.648c-6.312,0-12.408,0.872-18.216,2.6c-2.56-12.24-7.352-24.04-14.096-34.608
		c-19.304-30.048-52.088-47.992-87.688-47.992c-44.096,0-82.104,27.144-97.144,66.872c-9.712-21.6-14.856-45.112-14.856-69.032
		c0-26.224,5.832-51.208,17.32-74.272L156.712,0l-21.264,10.472c-63.304,31.176-102.624,94.4-102.624,165.016
		c0,39.52,12.568,76.144,33.856,106.16H0.824v16h78.56c5.04,5.664,10.424,11,16.112,16H48.824v16h67.728
		c28.872,18.84,63.296,29.84,100.272,29.84c49.28,0,95.28-19.12,130-53.84h14c35.288,0,64-28.712,64-64
		S396.112,177.648,360.824,177.648z M337.784,292.096c-31.944,33.144-74.904,51.392-120.96,51.392
		c-23.664,0-46.168-4.976-66.608-13.84h90.608v-16H121.48c-6.96-4.824-13.48-10.208-19.624-16h122.968v-16H86.752
		c-23.68-28.96-37.928-65.92-37.928-106.16c0-56.656,27.728-108.104,73.656-139.056c-6.416,18.824-9.656,38.6-9.656,59.056
		c0,32.512,8.632,64.336,24.864,92.336L137.664,188l1.52,2.512c27.384,45.272,71.424,75.72,121.84,85.544
		c11.632,2.264,23.608,3.44,35.8,3.44c20.432,0,40.184-3.232,59-9.648C350.464,277.752,344.432,285.192,337.784,292.096z
		 M361.136,289.648c0.632-0.8,1.144-1.688,1.768-2.496c2.704-3.536,5.272-7.16,7.712-10.888c0.912-1.4,1.84-2.784,2.72-4.208
		c3.04-4.936,5.936-9.968,8.512-15.2l10.496-21.28l-21.232,10.576c-23.088,11.504-48.072,17.336-74.288,17.336
		c-3.68,0-7.336-0.12-10.968-0.352c-1.2-0.08-2.384-0.24-3.584-0.336c-2.416-0.208-4.84-0.392-7.232-0.696
		c-1.432-0.184-2.84-0.456-4.264-0.68c-2.128-0.328-4.264-0.624-6.368-1.032c-1.52-0.296-3.016-0.68-4.528-1.016
		c-1.976-0.44-3.96-0.84-5.904-1.352c-1.56-0.408-3.08-0.904-4.616-1.352c-1.864-0.544-3.744-1.056-5.584-1.656
		c-1.56-0.512-3.08-1.112-4.624-1.672c-1.784-0.648-3.576-1.264-5.336-1.968c-1.544-0.624-3.048-1.32-4.568-1.992
		c-1.704-0.744-3.424-1.456-5.096-2.264c-1.528-0.728-3.016-1.536-4.52-2.312c-1.624-0.84-3.256-1.648-4.856-2.536
		c-1.496-0.832-2.944-1.744-4.408-2.624c-1.552-0.928-3.112-1.832-4.632-2.816c-1.448-0.936-2.848-1.944-4.272-2.92
		c-1.48-1.024-2.976-2.024-4.424-3.088c-1.4-1.032-2.744-2.136-4.112-3.216c-1.408-1.112-2.824-2.2-4.192-3.352
		c-1.344-1.128-2.64-2.328-3.944-3.504c-1.328-1.192-2.672-2.368-3.968-3.608c-1.28-1.224-2.504-2.504-3.744-3.776
		c-1.256-1.28-2.528-2.552-3.744-3.88c-1.192-1.296-2.336-2.656-3.488-3.992c-1.192-1.384-2.4-2.76-3.552-4.192
		c-1.104-1.36-2.152-2.776-3.216-4.184c-1.128-1.488-2.264-2.968-3.344-4.496c-1.008-1.424-1.968-2.904-2.936-4.36
		c-0.792-1.192-1.576-2.384-2.336-3.6c8.048-41.328,43.904-71.016,86.36-71.016c30.128,0,57.872,15.192,74.216,40.624
		c7.264,11.392,11.848,24.496,13.264,37.896l1.2,11.48l10.328-5.16c6.424-3.216,13.488-4.84,20.992-4.84c26.472,0,48,21.528,48,48
		C408.824,268.008,387.464,289.48,361.136,289.648z"/>
	<rect x="192.824" y="409.648" style="fill:#4D4D4D;" width="224" height="16"/>
	<rect x="32.824" y="409.648" style="fill:#4D4D4D;" width="128" height="16"/>
	<rect x="144.824" y="377.648" style="fill:#4D4D4D;" width="224" height="16"/>
	<rect x="80.824" y="377.648" style="fill:#4D4D4D;" width="32" height="16"/>
	<rect x="0.824" y="345.648" style="fill:#4D4D4D;" width="112" height="16"/>
</g>
<g>
</g>
<g>
</g>
<g>
</g>
<g>
</g>
<g>
</g>
<g>
</g>
<g>
</g>
<g>
</g>
<g>
</g>
<g>
</g>
<g>
</g>
<g>
</g>
<g>
</g>
<g>
</g>
<g>
</g>
</svg>
